<?xml version="1.0" encoding="utf8" standalone="no"?>
<svg viewBox="0 0 1487.1899 1052.3622" xmlns="http://www.w3.org/2000/svg" xmlns:osb="http://www.openswatchbook.org/uri/2009/osb">
<defs>
<linearGradient osb:paint="solid">
<stop offset="0" stop-color="#f50"/>
</linearGradient>
<linearGradient osb:paint="solid">
<stop offset="0"/>
</linearGradient>
</defs>
<g transform="translate(0,8.3704479e-5)">
<path d="m500.02553,307.20352c0,48.81554-39.57281,88.38835-88.38835,88.38835s-88.38835-39.57281-88.38835-88.38835 39.57281-88.38835 88.38835-88.38835 88.38835,39.57281 88.38835,88.38835z" fill="#fff" stroke="#000" stroke-width="5" transform="translate(237.92109,12.06677)"/>
<g transform="matrix(.29674,0,0,.29674,621.18411,246.21102)">
<path d="m95.872,81.671c22.55,0 40.834-18.284 40.834-40.836s-18.284-40.835-40.834-40.835-40.834,18.284-40.834,40.835 18.281,40.836 40.834,40.836z"/>
<path d="m95.872,40.835"/>
<path d="m52.173,90.683c-28.917,0-52.173,23.584-52.173,53v125.375c0,24.375 35.673,24.375 35.673,0v-114.642h8.445v313.907c0,32.59 47.503,31.631 47.503,0v-182.219h8.182v182.219c0,31.631 47.764,32.59 47.764,0v-313.907h8.247v114.642c0,24.563 35.487,24.562 35.423,0v-124.625c0-27.125-21.064-53.694-52.814-53.694l-86.25-.056z"/>
</g>
<path d="m500.02553,307.20352c0,48.81554-39.57281,88.38835-88.38835,88.38835s-88.38835-39.57281-88.38835-88.38835 39.57281-88.38835 88.38835-88.38835 88.38835,39.57281 88.38835,88.38835z" fill="#fff" stroke="#000" stroke-width="5" transform="translate(-187.4077,-117.8053)"/>
<g transform="matrix(.29674,0,0,.29674,195.85532,116.33895)">
<path d="m95.872,81.671c22.55,0 40.834-18.284 40.834-40.836s-18.284-40.835-40.834-40.835-40.834,18.284-40.834,40.835 18.281,40.836 40.834,40.836z"/>
<path d="m95.872,40.835"/>
<path d="m52.173,90.683c-28.917,0-52.173,23.584-52.173,53v125.375c0,24.375 35.673,24.375 35.673,0v-114.642h8.445v313.907c0,32.59 47.503,31.631 47.503,0v-182.219h8.182v182.219c0,31.631 47.764,32.59 47.764,0v-313.907h8.247v114.642c0,24.563 35.487,24.562 35.423,0v-124.625c0-27.125-21.064-53.694-52.814-53.694l-86.25-.056z"/>
</g>
<path d="m500.02553,307.20352c0,48.81554-39.57281,88.38835-88.38835,88.38835s-88.38835-39.57281-88.38835-88.38835 39.57281-88.38835 88.38835-88.38835 88.38835,39.57281 88.38835,88.38835z" fill="#fff" stroke="#000" stroke-width="5" transform="translate(-127.64758,499.8103)"/>
<g transform="matrix(.29674,0,0,.29674,255.61544,733.95455)">
<path d="m95.872,81.671c22.55,0 40.834-18.284 40.834-40.836s-18.284-40.835-40.834-40.835-40.834,18.284-40.834,40.835 18.281,40.836 40.834,40.836z"/>
<path d="m95.872,40.835"/>
<path d="m52.173,90.683c-28.917,0-52.173,23.584-52.173,53v125.375c0,24.375 35.673,24.375 35.673,0v-114.642h8.445v313.907c0,32.59 47.503,31.631 47.503,0v-182.219h8.182v182.219c0,31.631 47.764,32.59 47.764,0v-313.907h8.247v114.642c0,24.563 35.487,24.562 35.423,0v-124.625c0-27.125-21.064-53.694-52.814-53.694l-86.25-.056z"/>
</g>
<path d="m500.02553,307.20352c0,48.81554-39.57281,88.38835-88.38835,88.38835s-88.38835-39.57281-88.38835-88.38835 39.57281-88.38835 88.38835-88.38835 88.38835,39.57281 88.38835,88.38835z" fill="#fff" stroke="#000" stroke-width="5" transform="translate(642.34175,111.19299)"/>
<g transform="matrix(.29674,0,0,.29674,1025.60477,345.33724)">
<path d="m95.872,81.671c22.55,0 40.834-18.284 40.834-40.836s-18.284-40.835-40.834-40.835-40.834,18.284-40.834,40.835 18.281,40.836 40.834,40.836z"/>
<path d="m95.872,40.835"/>
<path d="m52.173,90.683c-28.917,0-52.173,23.584-52.173,53v125.375c0,24.375 35.673,24.375 35.673,0v-114.642h8.445v313.907c0,32.59 47.503,31.631 47.503,0v-182.219h8.182v182.219c0,31.631 47.764,32.59 47.764,0v-313.907h8.247v114.642c0,24.563 35.487,24.562 35.423,0v-124.625c0-27.125-21.064-53.694-52.814-53.694l-86.25-.056z"/>
</g>
<path d="m500.02553,307.20352c0,48.81554-39.57281,88.38835-88.38835,88.38835s-88.38835-39.57281-88.38835-88.38835 39.57281-88.38835 88.38835-88.38835 88.38835,39.57281 88.38835,88.38835z" fill="#fff" stroke="#f50" stroke-width="5" transform="translate(337.42329,400.40461)"/>
<g transform="matrix(.29674,0,0,.29674,720.68631,634.54886)">
<g fill="#f50">
<g fill="#f50">
<path d="m95.872,81.671c22.55,0 40.834-18.284 40.834-40.836s-18.284-40.835-40.834-40.835-40.834,18.284-40.834,40.835 18.281,40.836 40.834,40.836z" fill="#f50"/>
<path d="m95.872,40.835" fill="#f50"/>
</g>
<path d="m52.173,90.683c-28.917,0-52.173,23.584-52.173,53v125.375c0,24.375 35.673,24.375 35.673,0v-114.642h8.445v313.907c0,32.59 47.503,31.631 47.503,0v-182.219h8.182v182.219c0,31.631 47.764,32.59 47.764,0v-313.907h8.247v114.642c0,24.563 35.487,24.562 35.423,0v-124.625c0-27.125-21.064-53.694-52.814-53.694l-86.25-.056z" fill="#f50"/>
</g>
</g>
<path d="m500.02553,307.20352c0,48.81554-39.57281,88.38835-88.38835,88.38835s-88.38835-39.57281-88.38835-88.38835 39.57281-88.38835 88.38835-88.38835 88.38835,39.57281 88.38835,88.38835z" fill="#fff" stroke="#000" stroke-width="5" transform="translate(757.58854,579.8887)"/>
<g transform="matrix(.29674,0,0,.29674,1140.85156,814.03295)">
<path d="m95.872,81.671c22.55,0 40.834-18.284 40.834-40.836s-18.284-40.835-40.834-40.835-40.834,18.284-40.834,40.835 18.281,40.836 40.834,40.836z"/>
<path d="m95.872,40.835"/>
<path d="m52.173,90.683c-28.917,0-52.173,23.584-52.173,53v125.375c0,24.375 35.673,24.375 35.673,0v-114.642h8.445v313.907c0,32.59 47.503,31.631 47.503,0v-182.219h8.182v182.219c0,31.631 47.764,32.59 47.764,0v-313.907h8.247v114.642c0,24.563 35.487,24.562 35.423,0v-124.625c0-27.125-21.064-53.694-52.814-53.694l-86.25-.056z"/>
</g>
<path d="m500.02553,307.20352c0,48.81554-39.57281,88.38835-88.38835,88.38835s-88.38835-39.57281-88.38835-88.38835 39.57281-88.38835 88.38835-88.38835 88.38835,39.57281 88.38835,88.38835z" fill="#fff" stroke="#000" stroke-width="5" transform="translate(839.44046,-146.32038)"/>
<g transform="matrix(.29674,0,0,.29674,1222.70348,87.82387)">
<path d="m95.872,81.671c22.55,0 40.834-18.284 40.834-40.836s-18.284-40.835-40.834-40.835-40.834,18.284-40.834,40.835 18.281,40.836 40.834,40.836z"/>
<path d="m95.872,40.835"/>
<path d="m52.173,90.683c-28.917,0-52.173,23.584-52.173,53v125.375c0,24.375 35.673,24.375 35.673,0v-114.642h8.445v313.907c0,32.59 47.503,31.631 47.503,0v-182.219h8.182v182.219c0,31.631 47.764,32.59 47.764,0v-313.907h8.247v114.642c0,24.563 35.487,24.562 35.423,0v-124.625c0-27.125-21.064-53.694-52.814-53.694l-86.25-.056z"/>
</g>
<path d="m320.05975,216.91048 236.09811,68.68933" fill="none" stroke="#000" stroke-linecap="round" stroke-width="5" transform="translate(0,-8.3704479e-5)"/>
<path d="m744.19475,348.84578 210.88428,49.18359" fill="none" stroke="#000" stroke-linecap="round" stroke-width="5" transform="translate(0,-8.3704479e-5)"/>
<path d="m1113.3555,340.01035 78.6209-99.89811" fill="none" stroke="#000" stroke-linecap="round" stroke-width="5" transform="translate(0,-8.3704479e-5)"/>
<path d="m666.92664,416.6464 57.083,194.65716" fill="none" stroke="#000" stroke-linecap="round" stroke-width="5" transform="translate(0,-8.3704479e-5)"/>
<path d="m988.4508,493.09211-160.36259,155.76146" fill="#f50" stroke="#000" stroke-linecap="round" stroke-width="5"/>
<path d="m381.92228,787.06993 270.22028-60.36835" fill="none" stroke="#000" stroke-linecap="round" stroke-width="5" transform="translate(0,-8.3704479e-5)"/>
<path d="m830.37296,764.48314 242.70544,98.56058" fill="none" stroke="#000" stroke-linecap="round" stroke-width="5" transform="translate(0,-8.3704479e-5)"/>
<path d="m662.211,661.53058-385.87939-387.11141" fill="none" stroke="#000" stroke-linecap="round" stroke-width="5" transform="translate(0,-8.3704479e-5)"/>
<path d="m572.02095,378.94638-242.27024,339.69932" fill="none" stroke="#000" stroke-linecap="round" stroke-width="5" transform="translate(0,-8.3704479e-5)"/>
<path d="m741.06741,279.35221 411.18789-104.53929" fill="none" stroke="#000" stroke-linecap="round" stroke-width="5" transform="translate(0,-8.3704479e-5)"/>
<path d="m1241.2133,261.5717-54.1116,527.85796" fill="none" stroke="#000" stroke-linecap="round" stroke-width="5" transform="translate(0,-8.3704479e-5)"/>
<path d="m1084.0642,511.64465 48.9259,282.98278" fill="none" stroke="#000" stroke-linecap="round" stroke-width="5" transform="translate(0,-8.3704479e-5)"/>
</g>
</svg>
